<svg width="22" height="24" viewBox="0 0 22 24" fill="none" xmlns="http://www.w3.org/2000/svg">
<path d="M1.96313 10.5C1.13471 10.5 0.463135 11.1716 0.463135 12C0.463135 12.8284 1.13471 13.5 1.96313 13.5L1.96313 10.5ZM21.0238 13.0607C21.6096 12.4749 21.6096 11.5251 21.0238 10.9393L11.4779 1.3934C10.8921 0.807611 9.94232 0.807611 9.35653 1.3934C8.77075 1.97918 8.77075 2.92893 9.35653 3.51472L17.8418 12L9.35653 20.4853C8.77075 21.0711 8.77075 22.0208 9.35653 22.6066C9.94232 23.1924 10.8921 23.1924 11.4779 22.6066L21.0238 13.0607ZM1.96313 13.5L19.9631 13.5L19.9631 10.5L1.96313 10.5L1.96313 13.5Z" fill="#3A393E"/>
</svg>
